<svg width="81" height="71" viewBox="0 0 81 71" fill="none" xmlns="http://www.w3.org/2000/svg">
<g opacity="0.95">
<path d="M65.7188 51.1406C65.7188 49.9844 65.6094 48.9531 65.3906 48.0469C65.1719 47.1094 64.75 46.25 64.125 45.4688C63.5 44.6562 62.5625 43.8438 61.3125 43.0312C60.0625 42.2188 58.4219 41.375 56.3906 40.5C53.8906 39.4688 51.4531 38.3438 49.0781 37.125C46.7344 35.875 44.625 34.4375 42.75 32.8125C40.875 31.1562 39.375 29.2188 38.25 27C37.125 24.75 36.5625 22.125 36.5625 19.125C36.5625 16.2188 37.1094 13.5938 38.2031 11.25C39.2969 8.875 40.8281 6.85938 42.7969 5.20312C44.7656 3.51562 47.0938 2.23438 49.7812 1.35938C52.4688 0.453125 55.4219 0 58.6406 0C62.9844 0 66.7812 0.890625 70.0312 2.67188C73.2812 4.42188 75.8125 6.89062 77.625 10.0781C79.4375 13.2344 80.3438 16.9219 80.3438 21.1406H65.5312C65.5312 19.2969 65.2812 17.6875 64.7812 16.3125C64.2812 14.9062 63.5 13.8125 62.4375 13.0312C61.4062 12.2188 60.0469 11.8125 58.3594 11.8125C56.7969 11.8125 55.5 12.1406 54.4688 12.7969C53.4375 13.4531 52.6719 14.3438 52.1719 15.4688C51.6719 16.5938 51.4219 17.8438 51.4219 19.2188C51.4219 20.3125 51.6719 21.2812 52.1719 22.125C52.7031 22.9688 53.4062 23.75 54.2812 24.4688C55.1875 25.1875 56.25 25.875 57.4688 26.5312C58.7188 27.1875 60.0625 27.8125 61.5 28.4062C64.5625 29.625 67.2812 30.9531 69.6562 32.3906C72.0625 33.8281 74.0625 35.4531 75.6562 37.2656C77.2812 39.0469 78.5 41.0781 79.3125 43.3594C80.1562 45.6094 80.5781 48.1719 80.5781 51.0469C80.5781 53.9844 80.0781 56.6406 79.0781 59.0156C78.0781 61.3594 76.6406 63.3594 74.7656 65.0156C72.9219 66.6719 70.6719 67.9375 68.0156 68.8125C65.3594 69.6875 62.3906 70.125 59.1094 70.125C56.0156 70.125 53.0312 69.6875 50.1562 68.8125C47.2812 67.9062 44.7188 66.5312 42.4688 64.6875C40.25 62.8438 38.4844 60.4844 37.1719 57.6094C35.8594 54.7344 35.2031 51.3125 35.2031 47.3438H50.1094C50.1094 49.375 50.2812 51.1094 50.625 52.5469C51 53.9531 51.5625 55.0781 52.3125 55.9219C53.0938 56.7656 54.0469 57.3906 55.1719 57.7969C56.3281 58.1719 57.7031 58.3594 59.2969 58.3594C60.9219 58.3594 62.2031 58.0312 63.1406 57.375C64.0781 56.7188 64.7344 55.8594 65.1094 54.7969C65.5156 53.7031 65.7188 52.4844 65.7188 51.1406Z" fill="#4393C5" fill-opacity="0.94"/>
<path d="M17.3438 0.9375L26.1094 23.625L34.5469 0.9375H51.2344L35.3438 34.7344L51.5625 69.1875H34.4531L25.7344 46.0312L16.9688 69.1875H0L16.4062 34.5938L0.375 0.9375H17.3438Z" fill="#FF7237"/>
</g>
</svg>
