<svg width="295" height="73" viewBox="0 0 295 73" fill="none" xmlns="http://www.w3.org/2000/svg">
<g opacity="0.95">
<path d="M65.7188 53.9531C65.7188 52.7969 65.6094 51.7656 65.3906 50.8594C65.1719 49.9219 64.75 49.0625 64.125 48.2812C63.5 47.4688 62.5625 46.6562 61.3125 45.8438C60.0625 45.0312 58.4219 44.1875 56.3906 43.3125C53.8906 42.2812 51.4531 41.1562 49.0781 39.9375C46.7344 38.6875 44.625 37.25 42.75 35.625C40.875 33.9688 39.375 32.0312 38.25 29.8125C37.125 27.5625 36.5625 24.9375 36.5625 21.9375C36.5625 19.0312 37.1094 16.4062 38.2031 14.0625C39.2969 11.6875 40.8281 9.67188 42.7969 8.01562C44.7656 6.32812 47.0938 5.04688 49.7812 4.17188C52.4688 3.26562 55.4219 2.8125 58.6406 2.8125C62.9844 2.8125 66.7812 3.70312 70.0312 5.48438C73.2812 7.23438 75.8125 9.70312 77.625 12.8906C79.4375 16.0469 80.3438 19.7344 80.3438 23.9531H65.5312C65.5312 22.1094 65.2812 20.5 64.7812 19.125C64.2812 17.7188 63.5 16.625 62.4375 15.8438C61.4062 15.0312 60.0469 14.625 58.3594 14.625C56.7969 14.625 55.5 14.9531 54.4688 15.6094C53.4375 16.2656 52.6719 17.1562 52.1719 18.2812C51.6719 19.4062 51.4219 20.6562 51.4219 22.0312C51.4219 23.125 51.6719 24.0938 52.1719 24.9375C52.7031 25.7812 53.4062 26.5625 54.2812 27.2812C55.1875 28 56.25 28.6875 57.4688 29.3438C58.7188 30 60.0625 30.625 61.5 31.2188C64.5625 32.4375 67.2812 33.7656 69.6562 35.2031C72.0625 36.6406 74.0625 38.2656 75.6562 40.0781C77.2812 41.8594 78.5 43.8906 79.3125 46.1719C80.1562 48.4219 80.5781 50.9844 80.5781 53.8594C80.5781 56.7969 80.0781 59.4531 79.0781 61.8281C78.0781 64.1719 76.6406 66.1719 74.7656 67.8281C72.9219 69.4844 70.6719 70.75 68.0156 71.625C65.3594 72.5 62.3906 72.9375 59.1094 72.9375C56.0156 72.9375 53.0312 72.5 50.1562 71.625C47.2812 70.7188 44.7188 69.3438 42.4688 67.5C40.25 65.6562 38.4844 63.2969 37.1719 60.4219C35.8594 57.5469 35.2031 54.125 35.2031 50.1562H50.1094C50.1094 52.1875 50.2812 53.9219 50.625 55.3594C51 56.7656 51.5625 57.8906 52.3125 58.7344C53.0938 59.5781 54.0469 60.2031 55.1719 60.6094C56.3281 60.9844 57.7031 61.1719 59.2969 61.1719C60.9219 61.1719 62.2031 60.8438 63.1406 60.1875C64.0781 59.5312 64.7344 58.6719 65.1094 57.6094C65.5156 56.5156 65.7188 55.2969 65.7188 53.9531Z" fill="#4393C5" fill-opacity="0.94"/>
<path d="M109.688 72.9375C106.156 72.9375 103.016 72.4219 100.266 71.3906C97.5156 70.3594 95.2031 68.8594 93.3281 66.8906C91.4531 64.8906 90.0312 62.4688 89.0625 59.625C88.0938 56.75 87.6094 53.4844 87.6094 49.8281V45.0469C87.6094 40.9531 88.0469 37.375 88.9219 34.3125C89.8281 31.2188 91.1406 28.6406 92.8594 26.5781C94.5781 24.5156 96.7344 22.9688 99.3281 21.9375C101.922 20.875 104.906 20.3438 108.281 20.3438C111.438 20.3438 114.234 20.8438 116.672 21.8438C119.109 22.8438 121.156 24.3594 122.812 26.3906C124.469 28.3906 125.719 30.9219 126.562 33.9844C127.438 37.0156 127.875 40.5625 127.875 44.625V51.3281H93.2812V41.7188H113.906V40.3125C113.906 38.25 113.703 36.6094 113.297 35.3906C112.891 34.1719 112.266 33.2969 111.422 32.7656C110.578 32.2031 109.5 31.9219 108.188 31.9219C106.875 31.9219 105.797 32.1719 104.953 32.6719C104.141 33.1406 103.516 33.8906 103.078 34.9219C102.641 35.9531 102.328 37.3125 102.141 39C101.984 40.6875 101.906 42.7031 101.906 45.0469V49.8281C101.906 52.1094 102.094 54 102.469 55.5C102.844 56.9688 103.406 58.1406 104.156 59.0156C104.906 59.8594 105.812 60.4688 106.875 60.8438C107.969 61.1875 109.234 61.3594 110.672 61.3594C112.766 61.3594 114.719 61 116.531 60.2812C118.375 59.5312 119.938 58.4375 121.219 57L126.984 65.7656C126.078 66.8906 124.812 68.0156 123.188 69.1406C121.594 70.2656 119.656 71.1875 117.375 71.9062C115.125 72.5938 112.562 72.9375 109.688 72.9375Z" fill="#4393C5" fill-opacity="0.94"/>
<path d="M156.703 59.7656V36.9375C156.703 35.4375 156.562 34.2812 156.281 33.4688C156 32.625 155.562 32.0156 154.969 31.6406C154.375 31.2656 153.594 31.0781 152.625 31.0781C151.688 31.0781 150.906 31.2969 150.281 31.7344C149.656 32.1406 149.203 32.7656 148.922 33.6094C148.672 34.4219 148.547 35.4531 148.547 36.7031H134.25C134.25 34.4219 134.688 32.2969 135.562 30.3281C136.438 28.3281 137.703 26.5781 139.359 25.0781C141.016 23.5781 143 22.4219 145.312 21.6094C147.656 20.7656 150.281 20.3438 153.188 20.3438C156.594 20.3438 159.641 20.9062 162.328 22.0312C165.016 23.1562 167.141 24.9531 168.703 27.4219C170.266 29.8594 171.047 33.0781 171.047 37.0781V59.4375C171.047 62.5312 171.203 64.9531 171.516 66.7031C171.859 68.4219 172.328 69.9219 172.922 71.2031V72H158.625C157.969 70.5 157.484 68.6562 157.172 66.4688C156.859 64.2812 156.703 62.0469 156.703 59.7656ZM158.391 41.0156L158.438 49.1719H154.031C152.906 49.1719 151.938 49.3906 151.125 49.8281C150.344 50.2656 149.688 50.8594 149.156 51.6094C148.625 52.3281 148.234 53.1562 147.984 54.0938C147.734 55.0312 147.609 56.0156 147.609 57.0469C147.609 58.3281 147.766 59.3438 148.078 60.0938C148.422 60.8125 148.875 61.3281 149.438 61.6406C150 61.9531 150.656 62.1094 151.406 62.1094C152.719 62.1094 153.828 61.8438 154.734 61.3125C155.672 60.75 156.359 60.0781 156.797 59.2969C157.234 58.5156 157.359 57.8281 157.172 57.2344L159.562 62.8594C159.094 64.0156 158.562 65.1875 157.969 66.375C157.406 67.5312 156.688 68.6094 155.812 69.6094C154.969 70.6094 153.922 71.4062 152.672 72C151.422 72.625 149.891 72.9375 148.078 72.9375C145.391 72.9375 142.922 72.3594 140.672 71.2031C138.453 70.0469 136.672 68.3438 135.328 66.0938C134.016 63.8438 133.359 61.1094 133.359 57.8906C133.359 55.4219 133.75 53.1562 134.531 51.0938C135.312 49.0312 136.516 47.25 138.141 45.75C139.766 44.25 141.875 43.0938 144.469 42.2812C147.094 41.4375 150.234 41.0156 153.891 41.0156H158.391Z" fill="#4393C5" fill-opacity="0.94"/>
<path d="M194.203 33.2344V72H179.953V21.2812H193.312L194.203 33.2344ZM206.062 20.9062L205.922 34.7812C205.328 34.6875 204.578 34.6094 203.672 34.5469C202.766 34.4531 202 34.4062 201.375 34.4062C199.938 34.4062 198.719 34.625 197.719 35.0625C196.719 35.5 195.891 36.1562 195.234 37.0312C194.578 37.875 194.094 38.9375 193.781 40.2188C193.469 41.5 193.312 42.9688 193.312 44.625L190.781 43.2188C190.781 39.8438 191.031 36.7656 191.531 33.9844C192.062 31.2031 192.828 28.7969 193.828 26.7656C194.859 24.7344 196.094 23.1562 197.531 22.0312C198.969 20.9062 200.578 20.3438 202.359 20.3438C202.984 20.3438 203.641 20.3906 204.328 20.4844C205.047 20.5781 205.625 20.7188 206.062 20.9062Z" fill="#4393C5" fill-opacity="0.94"/>
<path d="M229.922 61.4062C231.047 61.4062 231.984 61.1875 232.734 60.75C233.516 60.3125 234.094 59.5625 234.469 58.5C234.875 57.4375 235.062 56 235.031 54.1875H248.438C248.469 58.1875 247.672 61.5938 246.047 64.4062C244.422 67.1875 242.234 69.3125 239.484 70.7812C236.766 72.2188 233.672 72.9375 230.203 72.9375C226.797 72.9375 223.812 72.4062 221.25 71.3438C218.719 70.2812 216.609 68.7344 214.922 66.7031C213.234 64.6406 211.969 62.1094 211.125 59.1094C210.312 56.1094 209.906 52.6562 209.906 48.75V44.5312C209.906 40.6562 210.312 37.2188 211.125 34.2188C211.969 31.1875 213.234 28.6562 214.922 26.625C216.609 24.5625 218.719 23 221.25 21.9375C223.781 20.875 226.75 20.3438 230.156 20.3438C233.812 20.3438 237 21.0938 239.719 22.5938C242.469 24.0625 244.609 26.2812 246.141 29.25C247.703 32.2188 248.469 35.9531 248.438 40.4531H235.031C235.062 38.5156 234.906 36.9219 234.562 35.6719C234.219 34.4219 233.656 33.4844 232.875 32.8594C232.125 32.2344 231.109 31.9219 229.828 31.9219C228.516 31.9219 227.469 32.1875 226.688 32.7188C225.938 33.2188 225.375 34 225 35.0625C224.656 36.0938 224.422 37.4062 224.297 39C224.203 40.5625 224.156 42.4062 224.156 44.5312V48.75C224.156 50.9375 224.203 52.8281 224.297 54.4219C224.422 56.0156 224.672 57.3281 225.047 58.3594C225.422 59.3906 225.984 60.1562 226.734 60.6562C227.516 61.1562 228.578 61.4062 229.922 61.4062Z" fill="#4393C5" fill-opacity="0.94"/>
<path d="M269.484 0V72H255.234V0H269.484ZM267.609 44.9062L264.141 45C264.078 41.4375 264.406 38.1562 265.125 35.1562C265.844 32.1562 266.891 29.5469 268.266 27.3281C269.672 25.1094 271.359 23.3906 273.328 22.1719C275.297 20.9531 277.469 20.3438 279.844 20.3438C281.938 20.3438 283.859 20.7031 285.609 21.4219C287.359 22.1406 288.859 23.2812 290.109 24.8438C291.391 26.4062 292.375 28.4531 293.062 30.9844C293.781 33.5156 294.141 36.6094 294.141 40.2656V72H279.844V40.1719C279.844 38.0469 279.625 36.3906 279.188 35.2031C278.781 33.9844 278.172 33.1406 277.359 32.6719C276.578 32.1719 275.578 31.9219 274.359 31.9219C272.984 31.9219 271.859 32.25 270.984 32.9062C270.109 33.5625 269.422 34.4844 268.922 35.6719C268.422 36.8281 268.078 38.2031 267.891 39.7969C267.703 41.3594 267.609 43.0625 267.609 44.9062Z" fill="#4393C5" fill-opacity="0.94"/>
<path d="M17.3438 3.75L26.1094 26.4375L34.5469 3.75H51.2344L35.3438 37.5469L51.5625 72H34.4531L25.7344 48.8438L16.9688 72H0L16.4062 37.4062L0.375 3.75H17.3438Z" fill="#FF3737"/>
</g>
</svg>
